# xmcd
#
# Track frame offsets:
#	150
#	18765
#	36475
#	55912
#	69072
#	87821
#	105327
#	124143
#	144872
#	165534
#	190324
#	203866
#
# Disc length: 2864 seconds
#
# Revision: 0
# Processed by: cddbd v1.5.2PL0 Copyright (c) Steve Scherf et al.
# Submitted via: EasyCDDAExtractor 15.3.0.1
#
DISCID=950b2e0c
DTITLE=Various Artist - Making Stars
DYEAR=2002
DGENRE=Country
TTITLE0=Brendon Walmsley - Rose and Rodeo
TTITLE1=Gina Jeffreys - Slipping Away
TTITLE2=Kieth Urban - Homefires
TTITLE3=Kylie Sackley - Love's Like a Train
TTITLE4=Darren Coggan - The Dream
TTITLE5=Tanya Self - He Just Knows
TTITLE6=Kieran Lancini - It's all Because of You
TTITLE7=Lyn Bowtell - Searching for Jane
TTITLE8=Grant Richardson - Huey
TTITLE9=Kate Ballantyne - Who's to Blame
TTITLE10=James Blundell - Gidgee Pub Bug
TTITLE11=Beccy Cole - Sugerfoot Rag
EXTD=
EXTT0=
EXTT1=
EXTT2=
EXTT3=
EXTT4=
EXTT5=
EXTT6=
EXTT7=
EXTT8=
EXTT9=
EXTT10=
EXTT11=
PLAYORDER=
